<?xml version="1.0" encoding="utf-8"?>
<!-- Generator: Adobe Illustrator 16.0.4, SVG Export Plug-In . SVG Version: 6.00 Build 0)  -->
<!DOCTYPE svg PUBLIC "-//W3C//DTD SVG 1.1//EN" "http://www.w3.org/Graphics/SVG/1.1/DTD/svg11.dtd">
<svg version="1.1" id="Ebene_1" xmlns="http://www.w3.org/2000/svg" xmlns:xlink="http://www.w3.org/1999/xlink" x="0px" y="0px"
	 width="60.5px" height="60px" viewBox="0 0 60.5 60" enable-background="new 0 0 60.5 60" xml:space="preserve">
<path fill="none" stroke="#000000" stroke-width="3" stroke-miterlimit="10" d="M58.09,45.849
	c-12.111,13.984-32.87,15.146-46.367,2.597C0.927,38.404,0.029,21.197,9.718,10.009C17.47,1.06,30.756,0.315,39.394,8.348
	c6.909,6.425,7.484,17.438,1.283,24.6c-4.961,5.728-13.464,6.203-18.993,1.062c-4.422-4.112-4.79-11.161-0.821-15.742
	c3.175-3.667,8.616-3.971,12.154-0.682c2.83,2.633,3.066,7.143,0.525,10.076c-2.031,2.346-5.514,2.541-7.778,0.437"/>
</svg>
